<?xml version="1.0" encoding="utf-8"?><svg version="1.1" id="Layer_1" xmlns="http://www.w3.org/2000/svg" xmlns:xlink="http://www.w3.org/1999/xlink" x="0px" y="0px" viewBox="0 0 122.88 91.86" style="enable-background:new 0 0 122.88 91.86" xml:space="preserve"><style type="text/css"><![CDATA[
	.st0{fill-rule:evenodd;clip-rule:evenodd;}
]]></style><g><path class="st0" d="M111.89,75.94l-6.59,6.59c-1.73,1.73-4.58,1.73-6.31,0l-5.31-5.31c-2.74,1.46-5.68,2.58-8.78,3.3v6.88 c0,2.45-2.01,4.46-4.46,4.46h-9.32c-2.45,0-4.46-2.01-4.46-4.46v-7.51c-3.04-0.92-5.91-2.23-8.54-3.89l-4.87,4.87 c-1.73,1.73-4.58,1.73-6.31,0l-2.98-2.97l0.08-0.09l13.07-14.96c4.78,5.6,11.9,9.16,19.84,9.16c14.4,0,26.08-11.68,26.08-26.07l0,0 l0,0c0-14.4-11.68-26.08-26.08-26.08c-7.21,0-13.74,2.93-18.46,7.66l-4.81-0.18L41.51,16.5c0.15-0.21,0.31-0.4,0.49-0.59l6.59-6.59 c1.73-1.73,4.58-1.73,6.31,0l5.31,5.31c2.74-1.47,5.68-2.59,8.78-3.3V4.45C69.01,2.01,71.02,0,73.47,0h9.31 c2.45,0,4.46,2.01,4.46,4.46l0,7.51c3.04,0.92,5.91,2.24,8.54,3.89l4.87-4.87c1.73-1.73,4.58-1.73,6.31,0l6.59,6.59 c1.73,1.73,1.73,4.58,0,6.31l-5.31,5.31c1.47,2.74,2.59,5.68,3.3,8.78h6.88c2.44,0,4.46,2.01,4.46,4.46v9.32 c0,2.45-2.01,4.46-4.46,4.46h-7.5c-0.92,3.04-2.23,5.91-3.89,8.54l4.87,4.87C113.63,71.36,113.63,74.2,111.89,75.94L111.89,75.94 L111.89,75.94L111.89,75.94L111.89,75.94z M77.03,37.46c4.68,0,8.47,3.79,8.47,8.47c0,4.68-3.79,8.47-8.47,8.47 c-4.68,0-8.47-3.79-8.47-8.47C68.56,41.25,72.36,37.46,77.03,37.46L77.03,37.46z M60.14,45.41L37.13,71.76L36.36,59.4 C20.63,57.15,8.58,61.47,0,73.87c0.1-24.4,15.96-37.16,34.82-39.12l-0.79-12.61L60.14,45.41L60.14,45.41L60.14,45.41L60.14,45.41 L60.14,45.41L60.14,45.41z"/></g></svg>